<!-- Generated by Claude -->
<svg viewBox="0 0 108 108" xmlns="http://www.w3.org/2000/svg">
    <!-- Background -->
    <rect x="4" y="4" width="100" height="100" rx="24" fill="#3B82F6" />

    <!-- Book base -->
    <path d="M 30 28
           L 78 28
           C 83 28 86 31 86 36
           L 86 80
           C 86 85 83 88 78 88
           L 30 88
           C 25 88 22 85 22 80
           L 22 36
           C 22 31 25 28 30 28"
        fill="#ffffff" />

    <!-- Book spine effect -->
    <path d="M 30 28
           C 35 28 40 28 45 28
           C 40 33 37 38 37 43
           L 37 73
           C 37 78 40 83 45 88
           C 40 88 35 88 30 88
           C 25 88 22 85 22 80
           L 22 36
           C 22 31 25 28 30 28"
        fill="#E2E8F0" />

    <!-- Pages -->
    <path d="M 37 43
           L 81 43
           C 83 43 85 45 85 47
           L 85 76
           C 85 78 83 80 81 80
           L 37 80"
        fill="none"
        stroke="#E2E8F0"
        stroke-width="2" />

    <!-- Text lines -->
    <line x1="45" y1="52" x2="77" y2="52" stroke="#94A3B8" stroke-width="3" stroke-linecap="round" />
    <line x1="45" y1="61" x2="77" y2="61" stroke="#94A3B8" stroke-width="3" stroke-linecap="round" />
    <line x1="45" y1="70" x2="65" y2="70" stroke="#94A3B8" stroke-width="3" stroke-linecap="round" />

    <!-- Bookmark -->
    <path d="M 70 28
           L 70 43
           L 75 38
           L 80 43
           L 80 28"
        fill="#EF4444" />
</svg>